<?xml version="1.0" encoding="UTF-8"?>
<!DOCTYPE svg PUBLIC "-//W3C//DTD SVG 1.1//EN" "http://www.w3.org/Graphics/SVG/1.1/DTD/svg11.dtd">
<!-- Creator: CorelDRAW 2020 (64-Bit) -->
<svg xmlns="http://www.w3.org/2000/svg" xml:space="preserve" width="13.2721mm" height="12.582mm" version="1.1" style="shape-rendering:geometricPrecision; text-rendering:geometricPrecision; image-rendering:optimizeQuality; fill-rule:evenodd; clip-rule:evenodd"
viewBox="0 0 47.49 45.03"
 xmlns:xlink="http://www.w3.org/1999/xlink"
 xmlns:xodm="http://www.corel.com/coreldraw/odm/2003">
 <defs>
  <style type="text/css">
   <![CDATA[
    .fil1 {fill:#005724}
    .fil0 {fill:#00783A}
    .fil2 {fill:#38B449}
    .fil3 {fill:#2F2F2F;fill-rule:nonzero}
    .fil4 {fill:#ED6C30;fill-rule:nonzero}
   ]]>
  </style>
 </defs>
 <g id="Capa_x0020_1">
  <metadata id="CorelCorpID_0Corel-Layer"/>
  <g id="_2361220088864">
   <path class="fil0" d="M31.74 20.24c1.13,-0.86 2.48,-1.95 2.89,-3.49 -2.94,-1.58 -7.49,-1.97 -11.19,-2.45 -2.13,-0.28 -4.16,-0.58 -6.18,-0.93 -1.54,-0.27 -4.21,-1.26 -5.36,-1.29 0.05,0.03 0.65,0.46 0.66,0.47l3.63 1.91c3.75,1.59 7.08,2.24 10.59,3.5 1.96,0.7 3.2,1.81 4.96,2.28z"/>
   <path class="fil1" d="M28.58 19.6c-1.59,-1.17 -9.55,-3.04 -13.03,-4.53 -0.8,-0.34 -1.27,-0.56 -1.97,-0.99l-1.96 -1.18c3.08,7.75 12.65,9.56 16.97,6.7z"/>
   <path class="fil2" d="M34.46 15.63c0.47,-0.99 0.93,-1.49 1.42,-2.69 -5.77,-1.11 -13.39,-1.1 -19.52,-0.82 1.42,1.16 9.55,1.38 13.69,2.21 1.79,0.36 2.85,0.99 4.41,1.29z"/>
   <path class="fil3" d="M28.63 5.26c0.06,0 0.12,-0.02 0.16,-0.07 0.09,-0.09 0.09,-0.23 0,-0.32l-0.73 -0.72c-0.09,-0.09 -0.23,-0.09 -0.32,0 -0.09,0.09 -0.09,0.23 0,0.32l0.73 0.73c0.04,0.04 0.1,0.07 0.16,0.07z"/>
   <path class="fil3" d="M27.3 5.02c0.06,0 0.12,-0.02 0.16,-0.07l1.11 -1.11c0.09,-0.09 0.09,-0.23 0,-0.32 -0.09,-0.09 -0.23,-0.09 -0.32,0l-1.11 1.11c-0.09,0.09 -0.09,0.23 0,0.32 0.04,0.04 0.1,0.07 0.16,0.07z"/>
   <rect class="fil3" x="30.05" y="3.52" width="1.23" height="4.58"/>
   <rect class="fil3" x="28.39" y="4.78" width="1.23" height="3.67"/>
   <path class="fil3" d="M30.91 3.75l-0.53 0 0 -0.74c-0,-0.01 -0.01,-0.28 0.19,-0.5 0.15,-0.16 0.37,-0.25 0.66,-0.25l0 0.53c-0.09,0 -0.21,0.01 -0.27,0.08 -0.05,0.05 -0.05,0.13 -0.05,0.13l0 0.75z"/>
   <path class="fil3" d="M25.03 5.77c0.18,0 0.33,-0.15 0.33,-0.33l0 -2.31c0,-0.18 -0.15,-0.33 -0.33,-0.33l-0.32 0c-0.18,0 -0.33,0.15 -0.33,0.33l0 2.31c0,0.18 0.15,0.33 0.33,0.33l0.32 0z"/>
   <polygon class="fil4" points="28.45,0 28.45,0.65 24.81,0.65 24.12,1.37 23.06,1.37 23.06,0 "/>
   <rect class="fil4" x="23.36" y="0.83" width="0.53" height="4.84"/>
   <path class="fil4" d="M28.12 6.41l0.5 -0.31c-0.7,-1.12 -1.9,-1.78 -3.22,-1.78 -1.14,0 -2.21,0.51 -2.94,1.39l0.46 0.37c0.61,-0.75 1.52,-1.18 2.48,-1.18 1.11,0 2.13,0.56 2.72,1.51z"/>
   <path class="fil4" d="M29.62 8.19l0 -3.41c2.76,0 3.98,0 4.07,0 0.69,0 1.17,0.46 1.17,1.13 0,0.67 0,3.14 0,3.14l-12.15 0 0 -0.86 6.91 0z"/>
   <path class="fil3" d="M31.69 9.52c0,1.01 0.82,1.83 1.83,1.83 1.01,0 1.83,-0.82 1.83,-1.83 0,-1.01 -0.82,-1.83 -1.83,-1.83 -1.01,0 -1.83,0.82 -1.83,1.83z"/>
   <circle class="fil4" cx="33.51" cy="9.52" r="0.73"/>
   <path class="fil3" d="M22.16 8.11c0,1.79 1.45,3.24 3.24,3.24 1.79,0 3.24,-1.45 3.24,-3.24 0,-1.79 -1.45,-3.24 -3.24,-3.24 -1.79,0 -3.24,1.45 -3.24,3.24z"/>
   <path class="fil4" d="M23.84 8.11c0,0.86 0.69,1.55 1.55,1.55 0.86,0 1.55,-0.69 1.55,-1.55 0,-0.86 -0.69,-1.55 -1.55,-1.55 -0.86,0 -1.55,0.69 -1.55,1.55z"/>
  </g>
  <path class="fil3" d="M1.12 23.94l2.62 0 3.4 5.01 0 -5.01 2.65 0 0 9.08 -2.65 0 -3.39 -4.99 0 4.99 -2.64 0 0 -9.08zm16 7.58l-3.18 0 -0.46 1.5 -2.86 0 3.42 -9.08 3.07 0 3.4 9.08 -2.94 0 -0.45 -1.5zm-0.59 -1.97l-0.99 -3.26 -1 3.26 1.99 0zm4.91 -5.62l4.17 0c0.82,0 1.49,0.11 1.99,0.33 0.5,0.22 0.92,0.54 1.26,0.96 0.33,0.42 0.57,0.9 0.72,1.46 0.15,0.55 0.22,1.14 0.22,1.76 0,0.97 -0.11,1.72 -0.33,2.26 -0.22,0.53 -0.53,0.98 -0.92,1.34 -0.39,0.36 -0.81,0.6 -1.26,0.72 -0.61,0.16 -1.17,0.25 -1.67,0.25l-4.17 0 0 -9.08zm2.8 2.05l0 4.96 0.69 0c0.59,0 1.01,-0.07 1.26,-0.19 0.25,-0.13 0.44,-0.36 0.58,-0.68 0.14,-0.33 0.21,-0.85 0.21,-1.58 0,-0.96 -0.16,-1.62 -0.47,-1.97 -0.31,-0.36 -0.84,-0.53 -1.57,-0.53l-0.7 0zm7.14 -2.05l2.81 0 0 9.08 -2.81 0 0 -9.08zm4.79 0l3.7 0 1.41 5.52 1.41 -5.52 3.68 0 0 9.08 -2.29 0 0 -6.92 -1.77 6.92 -2.08 0 -1.77 -6.92 0 6.92 -2.3 0 0 -9.08z"/>
  <path class="fil3" d="M6.5 43.38l-3.18 0 -0.46 1.5 -2.86 0 3.42 -9.08 3.07 0 3.4 9.08 -2.94 0 -0.45 -1.5zm-0.59 -1.97l-0.99 -3.26 -1 3.26 1.99 0zm4.87 -5.62l2.8 0 0 6.85 4.39 0 0 2.23 -7.19 0 0 -9.08zm8.46 0l7.51 0 0 1.94 -4.69 0 0 1.45 4.35 0 0 1.85 -4.35 0 0 1.79 4.83 0 0 2.05 -7.65 0 0 -9.08zm15.07 0l2.8 0 0 5.41c0,0.53 -0.08,1.04 -0.25,1.52 -0.17,0.48 -0.43,0.89 -0.79,1.25 -0.36,0.36 -0.73,0.61 -1.12,0.75 -0.55,0.2 -1.2,0.3 -1.96,0.3 -0.44,0 -0.92,-0.03 -1.45,-0.09 -0.52,-0.06 -0.96,-0.18 -1.31,-0.37 -0.35,-0.18 -0.67,-0.44 -0.96,-0.78 -0.29,-0.34 -0.49,-0.69 -0.6,-1.05 -0.17,-0.58 -0.26,-1.09 -0.26,-1.53l0 -5.41 2.8 0 0 5.54c0,0.49 0.14,0.88 0.41,1.16 0.27,0.28 0.66,0.42 1.14,0.42 0.48,0 0.86,-0.14 1.13,-0.41 0.27,-0.27 0.41,-0.66 0.41,-1.16l0 -5.54zm9.81 7.58l-3.18 0 -0.46 1.5 -2.86 0 3.42 -9.08 3.07 0 3.4 9.08 -2.94 0 -0.45 -1.5zm-0.59 -1.97l-0.99 -3.26 -1 3.26 1.99 0z"/>
 </g>
</svg>
