<?xml version="1.0" encoding="UTF-8"?>
<!DOCTYPE svg PUBLIC "-//W3C//DTD SVG 1.1//EN" "http://www.w3.org/Graphics/SVG/1.1/DTD/svg11.dtd">
<!-- Creator: CorelDRAW 2020 (64-Bit) -->
<svg xmlns="http://www.w3.org/2000/svg" xml:space="preserve" width="11.5012mm" height="12.7262mm" version="1.1" style="shape-rendering:geometricPrecision; text-rendering:geometricPrecision; image-rendering:optimizeQuality; fill-rule:evenodd; clip-rule:evenodd"
viewBox="0 0 40.23 44.52"
 xmlns:xlink="http://www.w3.org/1999/xlink"
 xmlns:xodm="http://www.corel.com/coreldraw/odm/2003">
 <defs>
  <style type="text/css">
   <![CDATA[
    .fil0 {fill:#333333}
   ]]>
  </style>
 </defs>
 <g id="Capa_x0020_1">
  <metadata id="CorelCorpID_0Corel-Layer"/>
  <path class="fil0" d="M17 40.83c1.2,-0.68 1.36,-2.33 1.53,-2.65l0 4.85c-0.32,-0.13 -0.65,-0.72 -0.83,-0.99l-0.7 -1.21zm17.58 -3.73c1.13,0 2.05,0.92 2.05,2.05 0,1.13 -0.92,2.05 -2.05,2.05 -1.13,0 -2.05,-0.92 -2.05,-2.05 0,-1.13 0.92,-2.05 2.05,-2.05zm-19.74 7.09c-0.53,-0.87 -1.07,-1.75 -1.6,-2.62 -0.32,0 -0.65,0 -0.97,0 0.01,0.82 0,1.64 0,2.46 -1.06,0 -2.12,-0 -3.18,0 0,-2.57 -0,-5.14 -0,-7.71l-3.07 -0.01 -0.04 7.54 -2.72 0 0 -5.41c0,-0.62 0,-1.8 0,-2.13 -0.49,0 -0.44,0 -0.68,0 -0.49,0 -1.85,0 -2.58,0l0.03 -2.36 8.28 -0.01c0.37,-0.07 0.23,-0.49 0.23,-0.94 -0.02,-3.1 -0.07,-6.3 0,-9.38 1.26,-0.15 5.48,-0.08 6.55,0.24 0.88,0.26 1.66,0.69 2.17,1.21 0.89,0.88 0.92,1.34 1.27,2.08 0,-0.45 0,-2.9 0,-3.5l3.57 -0c0,0.89 0,6.21 0,6.83 0.63,0 2.58,0 3.35,0 0.49,1.05 1.83,0.72 1.95,0.65 0.96,-0.62 -1.96,-1.07 -2.8,-1.36 -0.91,-0.32 -1.69,-0.82 -2.06,-1.54 -0.98,-1.91 0.3,-5.45 5.22,-4.78 1.92,0.26 3.71,1.57 3.62,3.49l-3.56 0c-0.64,-1.23 -1.57,-0.63 -1.56,-0.32 0.03,0.8 3.81,0.45 5,2.57 0.53,0.95 0.35,2.28 -0.11,3.1 -0.58,1.04 -1.4,1.19 -2.18,1.58 0.3,0.2 1.61,0.05 2.1,0.08l0.03 0.75c0.19,-0.04 0.52,-0.29 0.79,-0.41 0.98,-0.47 2.04,-0.65 3.2,-0.57 5.01,0.34 6.38,5.74 4.02,8.74 -1.51,1.91 -4.66,2.72 -7.33,1.41 -1.06,-0.52 -1.98,-1.47 -2.43,-2.61 -0.82,-2.07 -0.23,-2.99 -0.07,-4.27l-1.03 -0.02c0,2.41 0,4.75 0,7.22 -0,-0.01 -3.23,0.03 -3.56,0 0,-1.43 -0,-6.3 0,-7.22l-2.58 0c0,0.77 0,5.91 0,7.22 -0.61,0 -6.28,0 -7.26,0zm-2.3 -5.5c-0.23,-0.13 -0.15,-0.34 -0.15,-0.88 0,-0.32 -0.03,-0.62 0.04,-0.92 0.29,-0.1 1.33,-0.11 1.68,0.01 0.41,0.13 0.04,-0.01 0.22,0.14 0.65,0.28 0.59,1.06 0.19,1.41 -0.44,0.4 -1.38,0.29 -1.99,0.24zm9.53 -6.97c0.44,0.26 0.35,1.05 1.78,1.81 0.31,0.17 0.64,0.22 0.82,0.41l-2.57 0.01 -0.04 -2.22zm-7.66 2.12c0.99,-0.27 1.71,-0.45 2.48,-1.07 0.35,-0.28 0.64,-0.58 0.89,-0.92 0.12,-0.16 0.24,-0.38 0.33,-0.54 0.21,-0.39 0.14,-0.49 0.42,-0.65l0 6.76c-0.05,-0.17 -0.31,-1.85 -1.47,-2.62 -0.38,-0.28 -0.73,-0.42 -1.18,-0.57 -0.74,-0.24 -1.23,-0.19 -1.47,-0.4zm-2.31 -3.05l-0.01 -4.05c1.63,-0.17 2.98,0.29 2.98,2.02 0.01,1.65 -1.29,2.26 -2.97,2.03z"/>
  <path class="fil0" d="M20.16 16.93c0.19,-0.35 2.31,-1.8 2.64,-2.04 0.44,-0.32 0.89,-0.66 1.36,-1.01 0.4,-0.3 0.91,-0.78 1.4,-0.95l-0.01 4 -5.38 -0.01zm-8.2 -12.03c0.35,0.12 1.65,1.65 1.98,2.02l3.72 4.07c0.29,0.33 1.7,1.77 1.79,2.06l-4.84 3.66c-0.5,0.39 -1.97,0.26 -2.66,0.21l-0 -12.02zm13.56 3.74l-2.98 2.12c-0.06,-0.03 -6.54,-7.07 -6.64,-7.48l9.66 0.01 -0.03 5.36zm3.22 11.76c0.15,-0.53 0.05,-19.23 0.05,-20.32 -0.37,-0.11 -19.67,-0.12 -20.21,0.01l0.02 20.26 20.14 0.05z"/>
 </g>
</svg>
