<?xml version="1.0" encoding="utf-8"?>
<!-- Generator: Adobe Illustrator 14.0.0, SVG Export Plug-In . SVG Version: 6.00 Build 43363)  -->
<!DOCTYPE svg PUBLIC "-//W3C//DTD SVG 1.1//EN" "http://www.w3.org/Graphics/SVG/1.1/DTD/svg11.dtd">
<svg version="1.1"
	 id="barcelona" xmlns:dc="http://purl.org/dc/elements/1.1/" xmlns:cc="http://creativecommons.org/ns#" xmlns:rdf="http://www.w3.org/1999/02/22-rdf-syntax-ns#" xmlns:svg="http://www.w3.org/2000/svg" xmlns:sodipodi="http://sodipodi.sourceforge.net/DTD/sodipodi-0.dtd" xmlns:inkscape="http://www.inkscape.org/namespaces/inkscape" inkscape:version="0.48.2 r9819" sodipodi:docname="FCB.svg"
	 xmlns="http://www.w3.org/2000/svg" xmlns:xlink="http://www.w3.org/1999/xlink" x="0px" y="0px" width="400px" height="300px"
	 viewBox="0 0 400 300" enable-background="new 0 0 400 300" xml:space="preserve">
<g id="g2279">
	<g>
		<path id="path2239_1_" d="M95.651,28.718c17.783,7.806,46.971,6.881,66.547-7.893c27.373,20.057,53.718,17.997,78.837,0
			c16.747,12.105,42.531,17.273,66.727,8.146l10.846,15.069c-28.28,37.797-17.813,73.925,11.359,105.72l-12.249,12.42
			c2.773,81.521-60.364,100.984-96.621,103.004l-19.493,15.951l-19.347-15.713c-64.727-5.588-98.901-39.736-96.787-103.031
			l-12.595-12.724c24.607-26.618,43.102-62.99,11.489-105.633L95.651,28.718z"/>
		<path d="M201.605,282.346l-19.717-16.014c-32.589-2.861-57.408-13-73.77-30.139c-16.631-17.42-24.571-42.125-23.601-73.43
			l-12.941-13.077l0.608-0.659c33.181-35.89,36.917-70.051,11.425-104.438l-0.413-0.557l12.144-16.478l0.688,0.301
			c7.007,3.076,15.922,4.77,25.101,4.77c15.394,0,29.778-4.458,40.503-12.552l0.557-0.42l0.563,0.412
			c12.769,9.355,25.77,14.1,38.644,14.1c12.876,0,26.029-4.746,39.094-14.104l0.548-0.394l0.548,0.396
			c11.09,8.016,25.88,12.614,40.577,12.614c8.702,0,17.203-1.542,25.269-4.585l0.672-0.253l11.669,16.212l-0.412,0.55
			c-25.218,33.704-21.416,68.871,11.298,104.527l0.604,0.657l-12.594,12.77c1.134,36.014-10.321,63.496-34.055,81.688
			c-22.293,17.09-49.013,21.041-63.159,21.863L201.605,282.346L201.605,282.346z M74.171,149.643l12.25,12.377l-0.014,0.402
			c-2.072,62.051,30.204,96.393,95.931,102.066l0.287,0.023l18.978,15.41l19.139-15.658l0.306-0.016
			c23.227-1.295,98.782-12.475,95.733-102.036l-0.014-0.403l11.906-12.073c-32.679-35.997-36.458-71.552-11.227-105.703
			l-10.029-13.932c-8.075,2.957-16.567,4.455-25.255,4.455c-14.844,0-29.788-4.577-41.128-12.577
			c-13.21,9.334-26.542,14.066-39.639,14.066c-13.091,0-26.273-4.729-39.191-14.055c-10.985,8.075-25.541,12.515-41.075,12.515
			c-9.135,0-18.035-1.642-25.164-4.631l-10.437,14.16C110.671,78.386,106.849,113.912,74.171,149.643L74.171,149.643z"/>
	</g>
	<path id="path5105" inkscape:connector-curvature="0" fill="#004D98" d="M97.124,160.75h208.273
		c5.476,57.634-31.142,88.764-86.821,91.824l-35.381,0.09C129.924,248.834,90.235,220.709,97.124,160.75z"/>
	<rect id="rect6076" x="186.911" y="161.441" fill="#A50044" width="29.501" height="92.098"/>
	<g id="g6100" transform="translate(-0.132,0)">
		<rect id="rect6088" x="128.323" y="161.441" fill="#A50044" width="29.503" height="82.309"/>
		<rect id="rect6092" x="138.609" y="239.533" fill="#A50044" width="19.218" height="8.479"/>
	</g>
	<g id="g6096" transform="translate(-0.132,0)">
		<rect id="rect6090" x="245.425" y="161.441" fill="#A50044" width="29.502" height="82.309"/>
		<rect id="rect6094" x="245.425" y="239.533" fill="#A50044" width="19.217" height="8.479"/>
	</g>
	<path id="path4130" fill="#FFFFFF" d="M200.702,47.762v81.802l-99.421,0.719l10.247-39.373L98.763,43.806l62.925-8.09
		L200.702,47.762z"/>
	<path id="path2187" inkscape:connector-curvature="0" fill="#FFED02" d="M202.14,47.762v81.802l99.421,0.719L291.313,90.91
		l12.765-47.104l-62.924-8.09L202.14,47.762z"/>
	<rect id="rect2169" x="143.254" y="38.047" fill="#DB0030" width="28.505" height="91.01"/>
	<rect id="rect3143" x="112.003" y="71.994" fill="#DB0030" width="88.7" height="28.505"/>
	<g id="g2174" transform="translate(-0.132,0)">
		<rect id="rect4118" x="211.194" y="44.498" fill="#DB0030" width="10.542" height="83.967"/>
		<rect id="rect4120" x="231.208" y="38.483" fill="#DB0030" width="10.542" height="90.18"/>
		<rect id="rect4122" x="251.352" y="43.567" fill="#DB0030" width="10.544" height="85.284"/>
		<rect id="rect4124" x="271.309" y="46.69" fill="#DB0030" width="10.542" height="82.084"/>
	</g>
	<g>
		<path id="path4181_1_" inkscape:connector-curvature="0" fill="#EDBB00" d="M162.031,27.305
			c-18.359,13.458-47.414,14.874-64.092,8.146l-6.68,8.6c28.657,40.322,12.192,80.89-10.531,105.736l10.463,11.075
			c-4.244,60.777,31.225,95.93,93.577,99.547l16.899,14.113l16.866-14.338c36.312-0.627,99.98-20.99,93.121-99.412l10.52-10.896
			c-26.687-29.595-35.883-70.131-10.099-105.826l-6.271-8.544c-22.813,7.499-48.918,3.341-64.624-8.012
			C217.623,44.374,187.704,46.116,162.031,27.305z M241.392,38.856c14.166,8.796,29.819,11.298,56.803,8.933
			c-13.513,23.378-14.973,51.229-3.007,78.118l-187.263-0.111c10.071-24.027,12.383-51.676-3.408-78.54
			c19.464,2.826,38.479,2.149,57.437-8.167C187.671,54.186,214.126,54.462,241.392,38.856z M101.279,161.66H302.09
			c5.278,55.568-30.026,85.574-83.712,88.527l-34.12,0.088C132.896,246.582,94.635,219.468,101.279,161.66z"/>
		<path fill="#DEB405" d="M201.673,275.75l-17.268-14.424c-32.455-1.941-58.118-12.641-74.229-30.951
			c-15.161-17.23-21.872-40.502-19.948-69.168l-10.779-11.41l0.588-0.643c11.19-12.236,45.016-55.936,10.459-104.561l-0.404-0.568
			l7.542-9.71l0.657,0.265c6.171,2.49,14.223,3.861,22.671,3.86c15.438,0,30.206-4.334,40.516-11.892l0.555-0.407l0.554,0.407
			c11.878,8.703,25.339,13.303,38.925,13.303c13.616,0,27.146-4.537,39.125-13.12l0.548-0.394l0.548,0.396
			c10.215,7.383,24.757,11.617,39.896,11.617c8.311,0,16.348-1.257,23.887-3.736l0.646-0.212l7.076,9.644l-0.399,0.554
			c-23.136,32.027-19.29,72.126,10.034,104.647l0.586,0.65l-10.831,11.218c2.418,28.621-4.289,51.938-19.938,69.314
			c-24.717,27.445-62.308,30.441-73.804,30.684L201.673,275.75L201.673,275.75z M82.006,149.773l10.15,10.744l-0.029,0.41
			c-1.979,28.335,4.567,51.284,19.457,68.207c15.825,17.985,41.15,28.476,73.239,30.337l0.31,0.02l16.53,13.805l16.52-14.043
			l0.335-0.006c10.891-0.188,48.319-2.912,72.779-30.07c15.362-17.059,21.897-40.045,19.424-68.32l-0.037-0.428l10.211-10.576
			c-29.251-32.913-33.066-73.317-9.976-105.795l-5.468-7.45c-7.54,2.402-15.553,3.62-23.824,3.62
			c-15.258,0.001-29.952-4.214-40.444-11.581c-12.165,8.561-25.869,13.083-39.672,13.083c-13.778,0-27.414-4.585-39.48-13.266
			c-10.596,7.54-25.515,11.853-41.069,11.853c-8.387,0.001-16.416-1.323-22.711-3.736l-5.823,7.497
			C126.552,92.794,93.927,136.496,82.006,149.773L82.006,149.773z M184.26,251.215c-30.872-2.217-54.746-12.545-69.107-29.865
			c-12.633-15.234-17.614-35.354-14.805-59.795l0.096-0.832h202.5l0.08,0.852c2.372,24.975-3.181,45.486-16.502,60.965
			c-14.679,17.059-38.225,26.943-68.093,28.586L184.26,251.215L184.26,251.215z M102.118,162.598
			c-2.542,23.541,2.327,42.9,14.478,57.553c14.028,16.92,37.449,27.014,67.729,29.189l34.051-0.09
			c29.297-1.613,52.387-11.273,66.725-27.936c12.825-14.902,18.251-34.654,16.135-58.718L102.118,162.598L102.118,162.598z
			 M296.632,126.846l-190.116-0.113l0.545-1.3c11.525-27.496,10.366-54.365-3.352-77.702l-0.99-1.685l1.935,0.281
			c6.609,0.959,12.561,1.426,18.191,1.426c14.281,0,26.927-3.104,38.661-9.488l0.465-0.254l0.457,0.269
			c12.736,7.476,25.754,11.267,38.691,11.267c0.001,0,0.003,0,0.003,0c13.073,0,26.464-3.871,39.806-11.506l0.485-0.277l0.475,0.295
			c10.877,6.753,22.553,9.635,39.041,9.635c5.123,0,10.744-0.275,17.185-0.839l1.797-0.158l-0.903,1.561
			c-13.604,23.542-14.656,50.983-2.96,77.268L296.632,126.846L296.632,126.846z M109.327,124.86l184.429,0.109
			c-11.086-25.87-10.109-52.768,2.75-76.095c-5.764,0.469-10.874,0.697-15.577,0.697c-16.626,0-28.496-2.883-39.554-9.624
			c-13.468,7.615-27.009,11.478-40.253,11.478c-0.001,0-0.001,0-0.003,0c-13.12-0.001-26.301-3.79-39.183-11.26
			c-11.885,6.368-24.68,9.466-39.092,9.466c-5.176,0-10.612-0.387-16.562-1.182C119.198,71.552,120.251,97.9,109.327,124.86
			L109.327,124.86z"/>
	</g>
	<path d="M296.41,127.138l-190.112-0.112l0.545-1.3c11.523-27.496,10.366-54.364-3.35-77.701l-0.989-1.685l1.933,0.281
		c6.605,0.958,12.552,1.425,18.178,1.425c14.28,0,26.931-3.105,38.67-9.492l0.465-0.254l0.457,0.269
		c12.741,7.479,25.762,11.271,38.704,11.271c13.077-0.001,26.469-3.871,39.805-11.504l0.485-0.277l0.475,0.295
		c10.874,6.751,22.548,9.632,39.034,9.632c5.123,0,10.745-0.275,17.188-0.839l1.798-0.157l-0.903,1.561
		c-13.608,23.544-14.662,50.985-2.966,77.269L296.41,127.138L296.41,127.138z M109.109,125.152l184.426,0.109
		c-11.086-25.869-10.107-52.767,2.755-76.097c-5.767,0.469-10.877,0.697-15.58,0.697c-16.624,0-28.492-2.882-39.547-9.621
		c-13.465,7.614-27.004,11.475-40.253,11.476c-13.125,0-26.31-3.788-39.195-11.263c-11.891,6.37-24.688,9.469-39.101,9.469
		c-5.173,0-10.604-0.387-16.546-1.18C118.979,71.845,120.031,98.193,109.109,125.152L109.109,125.152z"/>
	<path d="M184.229,251.217l-0.034-0.002c-30.805-2.215-54.679-12.541-69.042-29.865c-12.635-15.234-17.616-35.354-14.807-59.795
		l0.095-0.832h202.497l0.081,0.852c2.372,24.977-3.181,45.49-16.505,60.973c-14.679,17.059-38.223,26.943-68.088,28.582
		L184.229,251.217L184.229,251.217z M102.116,162.598c-2.542,23.541,2.328,42.9,14.479,57.555
		c14.024,16.912,37.434,27.006,67.698,29.188l34.079-0.086c29.291-1.609,52.381-11.27,66.719-27.932
		c12.828-14.906,18.255-34.66,16.137-58.725H102.116L102.116,162.598z"/>
	<polygon points="202.423,126.235 200.547,126.235 200.547,50.359 202.423,50.359 	"/>
	<g id="g6097">
		<g>
			<path id="path2185_1_" inkscape:connector-curvature="0" fill="#EDBB00" d="M229.178,204.962
				c0.005,15.077-12.213,27.306-27.291,27.31c-15.078,0.008-27.305-12.213-27.311-27.291c0-0.008,0-0.013,0-0.019
				c-0.006-15.078,12.213-27.308,27.291-27.313s27.305,12.213,27.311,27.291C229.178,204.947,229.178,204.955,229.178,204.962z"/>
			<path d="M201.887,233.209h-0.014c-15.563,0-28.229-12.663-28.235-28.229c-0.005-15.59,12.658-28.265,28.229-28.271
				c15.575,0,28.244,12.663,28.249,28.229c0.004,7.563-2.932,14.655-8.264,19.99C216.52,230.268,209.43,233.207,201.887,233.209
				L201.887,233.209z M201.878,178.587c-7.052,0.002-13.671,2.748-18.648,7.729c-4.978,4.98-7.718,11.603-7.715,18.646
				c0.005,14.549,11.83,26.37,26.359,26.37v0.939l0.014-0.939c7.041-0.002,13.66-2.745,18.639-7.725
				c4.978-4.981,7.717-11.604,7.715-18.646C228.235,190.41,216.409,178.587,201.878,178.587L201.878,178.587z"/>
		</g>
		<g id="g4131">
			<path d="M193.583,213.246c-1.292,0-2.599-0.393-3.905-1.174c-9.968-5.957-7.525-18.401-4.455-29.599l1.811,0.495
				c-3.688,13.439-4.37,22.727,3.605,27.494c1.555,0.927,3.008,1.141,4.454,0.65c3.71-1.262,5.922-6.61,6.163-7.217l1.744,0.691
				c-0.445,1.123-2.889,6.801-7.303,8.302C194.998,213.128,194.293,213.246,193.583,213.246L193.583,213.246z"/>
			<path d="M176.655,216.904l-0.086-1.871c5.065-0.233,7.646-0.563,10.902-5.512l1.566,1.029
				C185.294,216.244,182.055,216.66,176.655,216.904L176.655,216.904z"/>
		</g>
		<path d="M225.087,217.378c-0.701-2.177-2.556-4.241-4.725-5.261c-1.304-0.609-3.347-1.137-5.675-0.203l-0.981,0.395l-0.272-1.021
			c-1.037-3.857-2.699-6.34-4.813-7.182c-1.766-0.703-3.858-0.316-6.229,1.141l-0.981-1.598c2.859-1.762,5.591-2.207,7.901-1.285
			c2.524,1.004,4.425,3.519,5.653,7.479c2.049-0.565,4.166-0.372,6.192,0.577c2.657,1.247,4.848,3.693,5.713,6.383L225.087,217.378
			L225.087,217.378z"/>
		<path d="M185.325,227.537l-0.187-1.865c15.608-1.557,24.913-6.456,28.445-14.986l1.732,0.719
			C211.495,220.63,201.684,225.908,185.325,227.537L185.325,227.537z"/>
		<path d="M201.277,205.533l-0.656-0.59c-3.281-2.931-7.746-6.916-0.89-15.553c-3.471-4.732-3.247-8.756,0.675-12.283l1.255,1.396
			c-3.296,2.963-3.295,6.146,0.001,10.324l0.47,0.597l-0.486,0.585c-6.368,7.646-3.018,10.639,0.224,13.533l0.674,0.604
			L201.277,205.533L201.277,205.533z"/>
		<path d="M228.236,207.053c-4.081-7.214-14.989-20.031-27.072-16.846l-0.478-1.813c13.193-3.464,24.854,10.086,29.185,17.735
			L228.236,207.053L228.236,207.053z"/>
	</g>
</g>
<path id="rect2194" d="M163.706,130.781v0.1h-4.959v9.631v5.459v10.708h5.358v-10.708h7.646v-5.459h-7.646v-4.184h13.192v-5.547
	H163.706z"/>
<path id="path3176" d="M204.28,138.862l4.812-2.512c-3.071-6.79-15.521-8.721-19.616,0c-4.227,10.401,0.267,20.064,8.444,21.008
	c5.198,0.754,9.316-1.789,11.064-6.309l-4.757-2.726c-1.268,3.156-6.097,5.33-9.781,0.053c-1.135-2.357-1.426-5.986-0.161-9.514
	C197.305,134.712,201.722,135.16,204.28,138.862z"/>
<path id="path5116" d="M222.671,130.847l0.101,26.034l14.169-0.057c4.612-0.646,10.656-8.193,3.575-14.061
	c3.742-3.299,3.273-10.358-4.218-11.862L222.671,130.847z M228.119,135.974h7.058c3.104,0.893,2.185,3.876,0.102,4.383h-7.158
	L228.119,135.974L228.119,135.974z M228.175,145.439l7.423,0.1c3.674,1.093,2.844,5.278,0.112,5.993l-7.479-0.056L228.175,145.439z"
	/>
</svg>
